<svg xmlns="http://www.w3.org/2000/svg" viewBox="0 0 368 368"><path d="M240.98 54.93c28.41-.43 28.41-.43 35.02 3.07 1.19 2.63 1.19 2.63 1 6-3.49 5.91-8.51 10.79-13.38 15.56l-2 1.98A183 183 0 0 1 245 96.31c-6.21 5.2-11.64 11.42-12.82 19.61L232 118l-.31 3.5c.92 10.3 5.89 17.49 13.41 24.44 7.59 6.17 16.75 13.4 26.9 13.06 12.69-3.69 21.89-15.42 29.66-25.44a429 429 0 0 1 11.55-14.3A44 44 0 0 1 322 111c3.12-.06 3.12-.06 6 1 4.33 5.56 3.73 12.2 3.93 18.93q.1 2.8.3 5.6A60 60 0 0 1 320 176l-1.47 2.09c-5.83 8.16-12.62 15.73-20.53 21.91l-1.92 1.71C283.59 211.85 265.62 214.49 250 213a78 78 0 0 1-7.09-1.54 21 21 0 0 0-13.35.85c-4.31 2.76-7.18 6.9-10.3 10.88a99 99 0 0 1-8.35 8.91c-4.21 4.19-8 8.77-11.72 13.4L197 248h-2l-.8 1.8a20 20 0 0 1-4.39 5.45 101 101 0 0 0-7.12 7.63 87 87 0 0 1-8.69 8.62 94 94 0 0 0-9.9 10.08c-3.5 4.03-7.18 7.89-10.84 11.78a308 308 0 0 0-9.82 10.95c-8.86 9.86-21.41 20.03-35.12 20.89-14.07-1.21-25.66-11.9-34.76-21.76-4.98-6.18-6.14-12.36-5.91-20.22 1.46-13.5 7.41-21.66 16.91-30.75 1.97-2 3.79-4.01 5.61-6.14 3.66-4.2 7.53-8.14 11.49-12.05l2.14-2.13 8.96-8.89 6.58-6.54 2.01-1.99q5.77-5.72 11.02-11.93c2.27-2.51 4.81-4.63 7.4-6.82 2.69-2.38 5.21-4.92 7.73-7.48 3.75-3.8 7.6-7.42 11.66-10.88 2.52-2.22 4.83-4.6 7.17-6.99a56 56 0 0 1 4.98-4.25c3.33-2.95 4.48-5.39 4.94-9.81V154l.03-2.93-.01-3.14.07-6.65.04-10.44q.02-5.05.08-10.1l-.01-3.11c.09-7.01 1.58-12.31 4.55-18.63l1.08-2.57C185.41 88.6 191.12 82.98 197 77l2.57-2.62c8.7-8.54 21.97-19.09 34.86-19.43q3.28.05 6.55-.02M96.12 271.44c-2.87 3.84-5.12 7.42-5.12 12.31 1.84 5.98 5.22 10.67 9.87 14.81 3.89 1.79 6.98 2.43 11.13 1.44 6.64-3.19 12.74-8.19 15.91-14.94 1.44-4.41 1.2-7.86-.65-12.1-2.7-4.2-6.8-7.73-11.26-9.96-8.79-.76-14.3 1.51-19.88 8.44"/></svg>