<svg xmlns="http://www.w3.org/2000/svg" viewBox="0 0 432 384"><path d="M290.94 53.75a108 108 0 0 1 7.3 3.41c7.2 3.59 14.02 3.83 21.76 1.84 7.76-.95 13.54.61 20 5 5.69 4.7 8.18 10.99 10 18 .4 4.25.3 8.43.13 12.69-.24 7.26-.1 13.32 1.87 20.31.23 3.34.23 3.34.19 6.5l-.02 3.16c-.17 3.34-.17 3.34-.66 6.83-.68 5.35-.7 10.7-.76 16.09l-.04 3.44-.25 19.05q-.23 16.6-.43 33.2-.12 10.17-.28 20.34l-.1 7.72q-.05 5.41-.14 10.83l-.02 3.2c-.21 10.58-2.45 18.63-9.5 26.64l-1.44 1.8c-5.58 6.34-15.16 11.68-23.55 13.2q-3.96.09-7.91.03l-4.75-.04q-3.71-.03-7.42-.09c-16.11-.2-16.11-.2-23.65 1.64-4.37.89-8.83.71-13.27.77-14.8.45-14.8.45-21 5.69-3 3.27-3.86 5.15-4.56 9.5.69 4.29 2.37 6.68 5.56 9.5a66 66 0 0 0 8.88 3.87c13.09 5.43 13.09 5.43 16.12 12.13.32 3.81.32 3.81-1 7-5.37 3.75-10.87 3.57-17.18 3.56l-3.37.01c-11.74-.21-23.11-2.23-34.62-4.43l-2.2-.42-5.92-1.17c-6.73-1-12.6-.57-19.21 1.14l-4.43 1.09-2.43.59q-7.58 1.78-15.2 3.38l-3.06.67c-8.43 1.79-15.51 2.97-23.38-1.42-3.08-2.85-3.9-4.33-4.5-8.5.6-4.28 1.25-5.64 4.5-8.5 4.15-2.08 8.54-3.5 12.92-5 11.35-3.94 11.35-3.94 14.96-10.31 1.32-4.35 1.68-6.4.12-10.69-2.74-2.49-5.74-4.25-9-6l-3.44-1.87c-7.63-2.42-13.2-1.44-20.62 1.43-7.14 2.72-11.28 2.75-18.5.72-8.83-2.35-17.3-2.72-26.42-2.81-7.7-.15-14.54-.84-20.83-5.6-2.33-3.05-3.7-5.94-5.16-9.47a72 72 0 0 0-3.53-7.03l-1.26-2.28C49 262 49 262 46.69 258.87c-4.2-7.28-2.16-18.02-.14-25.78 1.3-5.98.52-11.87-.54-17.83-1.47-10.07-1.38-20.18-1.38-30.34q-.01-5.12-.08-10.24c-.05-10.45-.06-19.98 3.55-29.9 2.42-7.44 1.29-14.55-1.42-21.7-1.78-5.48-.62-10.67.87-16.07.96-4.26.73-8.48-.05-12.76C46.17 85.59 46.06 77.53 51 70c5.1-4.97 9.5-6.18 16.44-6.69 7.2-.65 13.53-2.47 20.3-4.94 9.06-3.25 16.38-4.66 25.99-2.86 3.48.52 6.79.63 10.3.65l2.07.02 6.75.02 4.79.02q6.39.03 12.79.03h5.27c25.95.04 51.75-.38 77.6-2.79 6.9-.63 12.57-.78 19.14 1.54 9.33 2.97 14.06 2.4 22.9-1.87 5.6-2.38 10-1.54 15.6.62M110.63 76.06c-8.6 4.19-13.93 2.68-22.81.25-4.95-1.29-8.05-1.55-12.82.69-4.16 2.91-6.56 5.99-9.18 10.31l-2.05 3.3c-3.52 6.75-4.84 13.28-3.27 20.77.54 2.84.66 5.49.7 8.37l.1 3.35q.08 3.42.13 6.85a79 79 0 0 0 2.9 19.43 34 34 0 0 1 .92 9.49l-.08 3.91q-.16 4.32-.4 8.63a756 756 0 0 0-1.05 35.63q-.03 2.67-.08 5.33c-.15 9.4.15 18.37 2.13 27.58l.47 2.24c1.27 5.28 3.1 9.11 7.75 12.08 2.12.77 3.98 1.13 6.22 1.36l2.47.26 2.57.24 2.43.26c12.63 1.23 25.38.64 38.03.18q9.65-.32 19.29-.57l2.03-.06c26.2-.72 26.2-.72 37.22 3.16 7.27 2.38 13.9.89 21-1.35 5.8-1.59 11.52-1.91 17.5-1.94l3.92-.04c3.25.08 6.23.58 9.4 1.24 7.02 1.37 13.94 1.13 21.06.99 14.99-.3 14.99-.3 21.93 1.53 8.59 2.07 18.46.63 27.07-.84l2.1-.36c7-1.32 11.68-3.42 15.77-9.33 1.37-2.74 1.13-4.91 1.14-7.97v-3.85l-.01-4.24-.01-2.19c-.03-18.38-.54-36.74-1.04-55.11q-.3-10.57-.57-21.14l-.2-7.22q-.33-11.3-.4-22.58l-.02-2.12c0-4.46.52-8.45 1.65-12.75 1.75-6.94-.35-12.7-3.54-18.83-4.42-6.81-9.67-13.85-17.75-16-4.25-.25-8.24.67-12.4 1.5-8.06 1.4-14 .72-21.44-2.6-4.97-1.85-9.57-1.48-14.56.1a45 45 0 0 1-11.73 1.3l-2.3.03-7.45.05-5.26.05q-6.93.07-13.85.11l-24.64.21-2.65.03c-12.36.11-24.7.38-37.03 1.11-8.5.49-14.5.17-22.43-2.98-6.86-2.5-10.62-.99-16.88 2.15m76.43 201.07c-1.06 1.87-1.06 1.87-.74 4.56L187 284c2.32.63 2.32.63 5 1l3-2c.19-3.13.19-3.13 0-6-5.43-1.33-5.43-1.33-7.94.13"/><path d="M262 119v4l-4.28 3.25c-4.43 4.5-6.57 11.24-9.17 16.91-3.2 5.86-8.87 9.42-14.3 13.09-8.25 5.66-15.32 12.75-22.31 19.87-5 5.05-10.34 9.52-15.94 13.88l-2.68 2.13c-13.43 10.27-27.16 15.15-43.94 14.75-8.12-.2-13.51.51-20.38 5.12a94 94 0 0 1-4.12 1.81L122 215c-2.76-1.63-4.66-2.93-5.66-6.06-.76-5.17-.36-8.51 2.66-12.94 4.42-5.19 10.15-8.61 15.89-12.18 4.31-2.82 7.04-6.11 10.1-10.23 7.81-10.08 16.9-19.09 27.39-26.34 4.35-3.07 7.63-6.37 11.06-10.37 15.13-17.09 56.81-25.61 78.56-17.88"/></svg>