<svg xmlns="http://www.w3.org/2000/svg" viewBox="0 0 216 168"><path d="M138 24a97 97 0 0 1 9.19 3.81l2.36 1.04c10.6 4.8 17.71 13.27 22.65 23.79 1.51 4.45 2.27 9.06 3.09 13.68.71 3.68.71 3.68 1.75 7.26 2.96 10.58 2.01 22.17 1.71 33.04l-.08 3.74-.12 3.55-.1 3.19c-.51 3.29-1.5 5.22-3.45 7.9-7.36 4.24-18.33 2.68-26.25.75-3.93-1.07-5.63-2.24-7.75-5.75l-1.25-3.69c-2.19-4.53-5.69-6.6-9.87-9.12l-1.87-1.13c-9.57-5.45-18.39-6.58-29.35-6.19q-3.04.1-6.07.1c-9.57.29-18.63 1.96-25.58 9.07a34 34 0 0 0-4.83 7.85c-2.03 4.54-4.36 5.98-8.93 7.99-7.99 2.93-14.07 3.89-22.25 1.12-3.31-2.67-3.92-5.28-4.72-9.32-.59-5.67.03-11.48 1.23-17.04.48-2.6.66-5.02.74-7.66l.1-2.85.17-5.85c.26-7.13.85-13.58 4.42-19.9 1.96-3.67 2.72-7.18 3.5-11.26 1.51-7.56 3.6-14.8 9.5-20.12A26 26 0 0 1 55 28l2.41-.59c10.62-2.23 21.47-1.26 32.15.15 10.33 1.28 28.27 3.12 37.19-2.68 4.09-2.37 6.83-1.92 11.25-.88M68 41a55 55 0 0 0-5.88 7.88 59 59 0 0 1-5.24 6.62c-3.44 3.95-4.93 7.24-4.82 12.56C53.25 71.8 55.09 73.43 58 76a18.6 18.6 0 0 1 4.94 7c2.69 5.51 2.69 5.51 6.06 7 6.28.29 10.6-4.02 15-8 4.02-4.1 6.7-7.1 7.31-13-.12-5.88-1.99-12.3-5.85-16.79A89 89 0 0 0 80 48a652 652 0 0 1-6.11-5.68C72 41 72 41 68 41m66 2c-3.92 3.21-3.92 3.21-4.25 6.5 1.7 3.4 3.81 3.92 7.2 5.4 3.1 1.66 4.83 4.42 7.05 7.1 3.23 1.94 6.19 3 10 3-.51-4.47-1.91-6.75-5-10q-3.01-2.3-6.11-4.51c-2.37-1.87-4.05-4.11-5.89-6.49zm-13 18-1 5 4 1 1-5zm11 16c-1.12 2.31-1.12 2.31-2 5l2 3 5-1c.62-2.38.62-2.38 1-5l-2-2z"/><path d="M68 61c4.88.88 4.88.88 6 2 .46 5.28.46 5.28-1.19 7.88-2.4 1.48-4.04 1.41-6.81 1.12-1-1-1-1-1.25-3.81.27-3.47.94-4.68 3.25-7.19"/></svg>